# AST/ASF file generated using VICON BodyLanguage
# -----------------------------------------------
:version 1.10
:name VICON
:units
  mass 1.0
  length 0.45
  angle deg
:documentation
   .ast/.asf automatically generated from VICON data using
   VICON BodyBuilder and BodyLanguage model FoxedUp or BRILLIANT.MOD
:root
   order TX TY TZ RX RY RZ
   axis XYZ
   position 0 0 0  
   orientation 0 0 0 
:bonedata
  begin
     id 1 
     name lhipjoint
     direction 0.700308 -0.549349 0.455834 
     length 2.59063 
     axis 0 0 0  XYZ
  end
  begin
     id 2 
     name lfemur
     direction 0.34202 -0.939693 0  
     length 6.31066  
     axis 0 0 20  XYZ
    dof rx ry rz
    limits (-160.0 20.0)
           (-70.0 70.0)
           (-60.0 70.0)
  end
  begin
     id 3 
     name ltibia
     direction 0.34202 -0.939693 0   
     length 7.36093   
     axis 0 0 20   XYZ
    dof rx
    limits (-10.0 170.0)
  end
  begin
     id 4 
     name lfoot
     direction 0.0905332 -0.248738 0.96433   
     length 2.0233   
     axis -90 7.62852e-016 20   XYZ
    dof rx rz
    limits (-45.0 90.0)
           (-70.0 20.0)
  end
  begin
     id 5 
     name ltoes
     direction 1.53573e-011 -4.21855e-011 1   
     length 1.01524   
     axis -90 7.62852e-016 20   XYZ
    dof rx
    limits (-90.0 20.0)
  end
  begin
     id 6 
     name rhipjoint
     direction -0.61416 -0.607328 0.503944   
     length 2.34332  
     axis 0 0 0  XYZ 
  end
  begin
     id 7 
     name rfemur
     direction -0.34202 -0.939693 0   
     length 6.58548   
     axis 0 0 -20   XYZ
    dof rx ry rz
    limits (-160.0 20.0)
           (-70.0 70.0)
           (-70.0 60.0)
  end
  begin
     id 8 
     name rtibia
     direction -0.34202 -0.939693 0   
     length 7.20707   
     axis 0 0 -20   XYZ
    dof rx
    limits (-10.0 170.0)
 end
 begin
     id 9 
     name rfoot
     direction -0.136772 -0.375778 0.916561   
     length 1.92184  
     axis -90 -7.62852e-016 -20   XYZ
    dof rx rz
    limits (-45.0 90.0)
           (-20.0 70.0)
  end
  begin
     id 10 
     name rtoes
     direction -1.53535e-011 -4.21828e-011 1   
     length 0.951089   
     axis -90 -7.62852e-016 -20   XYZ
    dof rx
    limits (-90.0 20.0)
  end
  begin
     id 11 
     name lowerback
     direction -0.0444974 0.988086 -0.147332   
     length 1.9609   
     axis 0 0 0   XYZ
    dof rx ry rz
    limits (-20.0 45.0)
           (-30.0 30.0)
           (-30.0 30.0)
  end
  begin
     id 12 
     name upperback
     direction 0.00613146 0.999513 0.0306081   
     length 1.94944   
     axis 0 0 0   XYZ
    dof rx ry rz
    limits (-20.0 45.0)
           (-30.0 30.0)
           (-30.0 30.0)
  end
  begin
     id 13 
     name thorax
     direction 0.0254621 0.994518 0.101418   
     length 2.0119   
     axis 0 0 0   XYZ
    dof rx ry rz
    limits (-20.0 45.0)
           (-30.0 30.0)
           (-30.0 30.0)
  end
  begin
     id 14 
     name lowerneck
     direction 0.0168698 0.977854 0.208608   
     length 1.6375   
     axis 0 0 0   XYZ
    dof rx ry rz
    limits (-20.0 45.0)
           (-30.0 30.0)
           (-30.0 30.0)
  end
  begin
     id 15 
     name upperneck
     direction -0.0283988 0.989338 -0.142843   
     length 1.6851   
     axis 0 0 0   XYZ
    dof rx ry rz
    limits (-20.0 45.0)
           (-30.0 30.0)
           (-30.0 30.0)
  end
  begin
     id 16
     name head
     direction -0.0129422 0.99741 -0.0707489  
     length 1.69029  
     axis 0 0 0   XYZ
    dof rx ry rz
    limits (-20.0 45.0)
           (-30.0 30.0)
           (-30.0 30.0)
  end
  begin
     id 17 
     name lclavicle
     direction 0.820295 0.564628 -0.0911715  
     length 3.16484  
     axis 0 0 0   XYZ
    dof ry rz
    limits (-20.0 10.0)
           (0.0 20.0)
  end
  begin
     id 18 
     name lhumerus
     direction 1 -4.48969e-011 1.00186e-027   
     length 5.17853   
     axis 180 -30 -90   XYZ
    dof rx ry rz
    limits (-60.0 90.0)
           (-90.0 90.0)
           (-90.0 90.0)
  end
  begin
     id 19
     name lradius
     direction 1 -4.48966e-011 -1.52922e-027   
     length 3.40399   
     axis 180 -30 -90   XYZ
    dof rx
    limits (-10.0 170.0)
  end
  begin
     id 20
     name lwrist
     direction 1 -4.48981e-011 -3.80893e-027   
     length 1.70199   
     axis 1.1049e-015 90 90   XYZ
    dof ry
    limits (-180.0 0.0)
 end
  begin
     id 21 
     name lhand
     direction 1 -4.48957e-011 -7.61786e-027   
     length 0.708964   
     axis 4.86085e-015 90 90   XYZ
    dof rx rz
    limits (-90.0 90.0)
           (-45.0 45.0)
  end
  begin
     id 22 
     name lfingers
     direction 1 -4.48929e-011 -1.52357e-026   
     length 0.571585   
     axis 9.7217e-015 90 90   XYZ
    dof rx
    limits (0.0 90.0)
  end
  begin
     id 23
     name lthumb
     direction 0.707107 -6.34905e-011 0.707107   
     length 0.820685   
     axis -90 45 2.85299e-015   XYZ
    dof rx rz
    limits (-45.0 45.0)
           (-45.0 45.0)
  end
  begin
     id 24 
     name rclavicle
     direction -0.858602 0.463947 -0.218075   
     length 3.35137  
     axis 0 0 0   XYZ 
    dof ry rz
    limits (-10.0 20.0)
           (-20.0 0.0)
  end
  begin
     id 25 
     name rhumerus
     direction -1 -4.48969e-011 -1.98511e-027  
     length 5.42351   
     axis 180 30 90   XYZ
    dof rx ry rz
    limits (-90.0 60.0)
           (-90.0 90.0)
           (-90.0 90.0)
  end
  begin
     id 26 
     name rradius
     direction -1 -4.48961e-011 -2.82624e-027   
     length 3.42066   
     axis 180 30 90   XYZ
    dof rx
    limits (-10.0 170.0)
  end
  begin
     id 27 
     name rwrist
     direction -1 -4.48966e-011 -3.80893e-027   
     length 1.71033   
     axis 1.1049e-015 -90 -90   XYZ
    dof ry
    limits (-180.0 0.0)
  end
  begin
     id 28
     name rhand
     direction -1 -4.48964e-011 -7.61786e-027   
     length 0.743608   
     axis 4.86085e-015 -90 -90   XYZ
    dof rx rz
    limits (-90.0 90.0)
           (-45.0 45.0)
  end
  begin
     id 29
     name rfingers
     direction -1 -4.48961e-011 -1.52357e-026   
     length 0.599516   
     axis 9.7217e-015 -90 -90   XYZ
    dof rx
    limits (0.0 90.0)
  end
  begin
     id 30
     name rthumb
     direction -0.707107 -6.34913e-011 0.707107   
     length 0.860789   
     axis -90 -45 -2.85299e-015   XYZ
    dof rx rz
    limits (-45.0 45.0)
           (-45.0 45.0)
  end
:hierarchy
  begin
    root lhipjoint rhipjoint lowerback
    lhipjoint lfemur
    lfemur ltibia
    ltibia lfoot
    lfoot ltoes
    rhipjoint rfemur
    rfemur rtibia
    rtibia rfoot
    rfoot rtoes
    lowerback upperback
    upperback thorax
    thorax lowerneck lclavicle rclavicle
    lowerneck upperneck
    upperneck head
    lclavicle lhumerus
    lhumerus lradius
    lradius lwrist
    lwrist lhand lthumb
    lhand lfingers
    rclavicle rhumerus
    rhumerus rradius
    rradius rwrist
    rwrist rhand rthumb
    rhand rfingers
  end

#!OML:ASF E:\mmandel\Project 1\Capture day 1\Session 2\Subject.ASF
:FULLY-SPECIFIED
:DEGREES
562
root 6.9898 8.68572 -2.54822 15.0469 68.213 27.061
lowerback 37.7364 0.29639 -3.30157
upperback 12.3238 0.744816 3.06615
thorax -4.9873 0.723541 4.64697
lowerneck -9.38729 3.39765 5.243
upperneck 14.1758 7.41602 -19.8282
head 6.84307 2.59404 -6.69047
rclavicle 2.54444e-014 -6.20208e-014
rhumerus -3.48506 -2.12391 -51.4267
rradius 14.9466
rwrist 19.6468
rhand -6.00006 25.3618
rfingers 7.12502
rthumb 19.8323 -3.64637
lclavicle 2.54444e-014 -6.20208e-014
lhumerus 13.5108 -35.5276 17.155
lradius 66.0055
lwrist 34.7397
lhand -16.9508 -31.3311
lfingers 7.12502
lthumb 9.28279 -1.55541
rfemur -77.8667 -42.768 -5.0102
rtibia 135.578
rfoot -26.5519 23.4962
rtoes -22.891
lfemur -32.2002 63.5718 34.6926
ltibia 133.535
lfoot -20.3595 -44.199
ltoes -22.8065
563
root 6.98385 8.78661 -2.54852 15.6956 68.4975 26.9791
lowerback 37.3035 0.34879 -3.41212
upperback 12.1812 0.740475 2.91606
thorax -4.9958 0.71561 4.55072
lowerneck -9.47876 3.46717 5.24543
upperneck 13.9028 7.42257 -19.6518
head 6.76722 2.61289 -6.61989
rclavicle 3.18055e-015 3.33958e-014
rhumerus -3.15071 -0.0222109 -51.6812
rradius 15.7206
rwrist 17.1548
rhand -5.99189 25.0527
rfingers 7.12502
rthumb 19.8401 -3.95467
lclavicle 3.18055e-015 3.33958e-014
lhumerus 13.0386 -35.6738 17.403
lradius 66.9868
lwrist 34.6634
lhand -17.1264 -31.5085
lfingers 7.12502
lthumb 9.11336 -1.72538
rfemur -77.8115 -41.9184 -4.36102
rtibia 134.783
rfoot -26.5453 22.7661
rtoes -22.8756
lfemur -35.5127 62.9595 30.4153
ltibia 132.799
lfoot -19.7968 -43.1876
ltoes -21.8599
564
root 6.98103 8.89321 -2.54541 15.6923 68.7416 26.3655
lowerback 37.0158 0.418123 -3.34567
upperback 12.0838 0.824275 2.76786
thorax -5.00982 0.756379 4.33075
lowerneck -9.52828 3.52088 5.37879
upperneck 13.5639 7.39911 -19.6039
head 6.6687 2.62194 -6.61941
rclavicle 3.57812e-014 -2.54444e-014
rhumerus -2.80842 1.13099 -51.9837
rradius 16.3393
rwrist 15.4397
rhand -6.45196 25.6224
rfingers 7.12502
rthumb 19.3978 -3.43005
lclavicle 3.57812e-014 -2.54444e-014
lhumerus 12.7164 -35.9393 17.5049
lradius 67.9746
lwrist 34.7372
lhand -17.3421 -31.7432
lfingers 7.12502
lthumb 8.90527 -1.95115
rfemur -77.4241 -40.7114 -3.721
rtibia 133.907
rfoot -26.4451 22.0999
rtoes -22.5299
lfemur -37.6486 62.3304 27.4608
ltibia 131.985
lfoot -19.545 -42.3423
ltoes -20.9988
565
root 6.97528 9.00962 -2.54256 15.6496 69.0642 25.7743
lowerback 36.8926 0.519851 -3.47608
upperback 11.9557 0.89568 2.80431
thorax -5.11704 0.783881 4.41307
lowerneck -9.3892 3.54484 5.21039
upperneck 13.1056 7.34663 -19.4542
head 6.48065 2.62538 -6.53141
rclavicle -4.21423e-014 -2.54444e-014
rhumerus -2.33907 2.35652 -52.0659
rradius 16.8437
rwrist 13.725
rhand -6.96799 25.9973
rfingers 7.12502
rthumb 18.9016 -3.10428
lclavicle -4.21423e-014 -2.54444e-014
lhumerus 12.0192 -36.2739 17.9744
lradius 69.0076
lwrist 34.8812
lhand -17.3774 -31.9987
lfingers 7.12502
lthumb 8.87116 -2.20519
rfemur -76.7712 -39.5426 -3.28865
rtibia 132.936
rfoot -26.241 21.7141
rtoes -21.664
lfemur -39.8054 61.4665 24.3976
ltibia 131.097
lfoot -19.9445 -41.1868
ltoes -21.7124
566
root 6.96486 9.12834 -2.54043 15.7798 69.4396 25.3369
lowerback 36.7834 0.605052 -3.51893
upperback 11.836 0.973451 2.769
thorax -5.21771 0.819771 4.37066
lowerneck -9.49387 3.5289 5.11651
upperneck 12.8082 7.22666 -19.1621
head 6.37494 2.58579 -6.4176
rclavicle -6.36111e-014 -7.95139e-015
rhumerus -2.08445 3.57283 -52.1625
rradius 17.5756
rwrist 11.7517
rhand -7.19356 26.0208
rfingers 7.12502
rthumb 18.6847 -3.10183
lclavicle -6.36111e-014 -7.95139e-015
lhumerus 11.5866 -36.5911 18.3215
lradius 69.9183
lwrist 34.7797
lhand -17.4543 -32.0545
lfingers 7.12502
lthumb 8.79693 -2.25781
rfemur -76.2661 -38.4813 -2.78411
rtibia 131.957
rfoot -26.168 21.1121
rtoes -21.5924
lfemur -42.3068 60.3665 20.9782
ltibia 130.2
lfoot -20.1841 -39.8028
ltoes -22.4215
567
root 6.95778 9.24025 -2.53754 15.9387 69.753 24.9266
lowerback 36.6257 0.714894 -3.35752
upperback 11.7554 1.14101 2.56826
thorax -5.25994 0.90748 4.01381
lowerneck -9.78738 3.44885 5.32315
upperneck 12.5762 6.9934 -18.9517
head 6.32177 2.48673 -6.39701
rclavicle -3.73715e-014 6.36111e-015
rhumerus -2.08076 4.37297 -52.4008
rradius 18.4789
rwrist 9.72563
rhand -7.24196 26.0875
rfingers 7.12502
rthumb 18.6381 -3.03957
lclavicle -3.73715e-014 6.36111e-015
lhumerus 11.7713 -37.006 18.2175
lradius 70.6867
lwrist 34.6906
lhand -17.6053 -32.1078
lfingers 7.12502
lthumb 8.6512 -2.30509
rfemur -75.9003 -37.461 -2.23996
rtibia 131.01
rfoot -26.1427 20.4499
rtoes -21.7118
lfemur -44.4058 59.3934 18.0318
ltibia 129.333
lfoot -19.8763 -38.6351
ltoes -21.5004
568
root 6.95437 9.35436 -2.53291 15.7291 70.0918 24.1426
lowerback 36.5199 0.835958 -3.18563
upperback 11.7071 1.33901 2.47729
thorax -5.28917 1.00725 3.75695
lowerneck -10.1827 3.42733 5.43065
upperneck 12.2658 6.86288 -18.8354
head 6.27844 2.42645 -6.3787
rclavicle 1.66979e-014 1.59028e-015
rhumerus -1.91111 4.63897 -52.5911
rradius 19.2646
rwrist 8.19973
rhand -7.26975 26.1381
rfingers 7.12502
rthumb 18.6114 -2.99159
lclavicle 1.66979e-014 1.59028e-015
lhumerus 11.8664 -37.4148 18.2797
lradius 71.3697
lwrist 34.7301
lhand -17.8273 -32.2086
lfingers 7.12502
lthumb 8.43704 -2.39709
rfemur -75.3943 -36.4129 -1.59599
rtibia 129.986
rfoot -26.1364 19.8206
rtoes -21.6547
lfemur -45.9556 58.5252 15.7831
ltibia 128.434
lfoot -20.0965 -37.5927
ltoes -20.8718
569
root 6.94861 9.46981 -2.52614 15.3612 70.3894 23.0894
lowerback 36.3237 0.980232 -2.93142
upperback 11.7468 1.59841 2.35333
thorax -5.19117 1.13831 3.4031
lowerneck -11.031 3.44777 5.58725
upperneck 12.0977 6.78493 -18.6405
head 6.36679 2.36723 -6.33807
rclavicle 2.14687e-014 0
rhumerus -1.68297 3.81022 -52.9474
rradius 19.9496
rwrist 7.5583
rhand -7.47467 26.3896
rfingers 7.12502
rthumb 18.4142 -2.75881
lclavicle 2.14687e-014 0
lhumerus 12.3195 -37.677 18.1282
lradius 71.8933
lwrist 34.8874
lhand -18.0568 -32.1733
lfingers 7.12502
lthumb 8.21549 -2.35301
rfemur -75.1496 -35.2783 -0.723169
rtibia 128.989
rfoot -26.0705 19.052
rtoes -21.8244
lfemur -47.5398 57.7058 13.7116
ltibia 127.53
lfoot -20.8207 -36.4575
ltoes -21.8827
570
root 6.94248 9.57939 -2.52232 15.8121 70.7175 22.882
lowerback 36.0223 1.08973 -2.66282
upperback 11.7844 1.80162 2.00687
thorax -5.04135 1.24986 2.83057
lowerneck -11.7835 3.39603 6.09451
upperneck 11.9553 6.54493 -18.4743
head 6.43382 2.24683 -6.38852
rclavicle 5.56597e-015 5.88403e-014
rhumerus -1.7131 2.89521 -53.4819
rradius 20.7266
rwrist 6.72948
rhand -7.85843 26.8273
rfingers 7.12502
rthumb 18.0451 -2.35557
lclavicle 5.56597e-015 5.88403e-014
lhumerus 13.1149 -38.0457 17.5975
lradius 72.3059
lwrist 34.8105
lhand -18.1438 -32.1911
lfingers 7.12502
lthumb 8.13158 -2.36751
rfemur -75.0236 -34.4838 -0.252208
rtibia 128.086
rfoot -25.9169 18.4405
rtoes -22.0349
lfemur -49.3859 56.6437 11.0941
ltibia 126.632
lfoot -21.0404 -35.2911
ltoes -22.4902
571
root 6.93758 9.68919 -2.52328 16.8001 71.2817 23.3935
lowerback 35.908 0.98229 -3.07066
upperback 11.4821 1.51139 2.08353
thorax -5.32164 1.09512 3.22626
lowerneck -11.2406 3.51333 5.79656
upperneck 11.6566 6.72811 -18.4882
head 6.25977 2.36327 -6.31744
rclavicle 7.95139e-016 0
rhumerus -1.56076 4.54797 -53.4342
rradius 21.6799
rwrist 4.84733
rhand -8.31313 27.4438
rfingers 7.12502
rthumb 17.6075 -1.77895
lclavicle 7.95139e-016 0
lhumerus 11.5154 -38.7604 18.9913
lradius 72.7186
lwrist 34.5145
lhand -18.1397 -32.2665
lfingers 7.12502
lthumb 8.13554 -2.4431
rfemur -74.4048 -34.2369 -0.267837
rtibia 127.134
rfoot -25.8284 18.2142
rtoes -21.9409
lfemur -51.165 55.0726 8.23528
ltibia 125.714
lfoot -21.2334 -33.9416
ltoes -22.7483
572
root 6.93559 9.80072 -2.52 16.828 71.8448 22.991
lowerback 35.8793 0.940098 -3.15879
upperback 11.3049 1.42157 2.1449
thorax -5.50279 1.04747 3.36781
lowerneck -11.2366 3.5894 5.68034
upperneck 11.5657 6.82732 -18.4161
head 6.23775 2.41442 -6.26026
rclavicle 5.56597e-014 -2.38542e-014
rhumerus -1.28885 5.36334 -53.5165
rradius 22.2766
rwrist 3.30848
rhand -8.72499 27.9499
rfingers 7.12502
rthumb 17.2112 -1.30791
lclavicle 5.56597e-014 -2.38542e-014
lhumerus 10.6276 -39.3833 19.9751
lradius 73.0932
lwrist 34.7692
lhand -18.1965 -32.0345
lfingers 7.12502
lthumb 8.08064 -2.20896
rfemur -73.5928 -33.7642 0.0661569
rtibia 126.121
rfoot -25.8232 17.8845
rtoes -21.5778
lfemur -52.2902 53.7608 6.47577
ltibia 124.813
lfoot -21.6712 -32.7907
ltoes -23.5575
573
root 6.935 9.90936 -2.51195 16.4481 72.2482 22.1557
lowerback 35.6599 1.02904 -3.31445
upperback 11.2919 1.48435 2.25247
thorax -5.58438 1.06945 3.54148
lowerneck -11.0092 3.58262 5.42447
upperneck 11.0348 6.73882 -18.1952
head 6.00413 2.40838 -6.13978
rclavicle -4.77083e-015 -1.74931e-014
rhumerus -0.928957 6.17221 -53.5568
rradius 22.764
rwrist 1.60645
rhand -9.24172 28.0311
rfingers 7.12502
rthumb 16.7137 -1.26942
lclavicle -4.77083e-015 -1.74931e-014
lhumerus 9.7328 -39.8627 21.0747
lradius 73.4389
lwrist 34.8526
lhand -18.3145 -31.9774
lfingers 7.12502
lthumb 7.9668 -2.14755
rfemur -72.9579 -33.0247 0.6104
rtibia 125.128
rfoot -25.731 17.4197
rtoes -20.8769
lfemur -52.9453 52.8158 5.34814
ltibia 123.889
lfoot -21.9539 -31.9973
ltoes -24.2496
574
root 6.93421 10.0177 -2.50653 16.5816 72.5805 21.7816
lowerback 35.3462 1.13857 -3.47521
upperback 11.2082 1.55698 2.21897
thorax -5.57251 1.09747 3.57021
lowerneck -10.6577 3.54173 5.32476
upperneck 10.4842 6.55028 -17.8415
head 5.7297 2.37263 -6.01438
rclavicle 2.54444e-014 2.3059e-014
rhumerus -0.794974 6.84184 -53.6954
rradius 23.5205
rwrist -0.184751
rhand -9.81629 28.2151
rfingers 7.12502
rthumb 16.1605 -1.13119
lclavicle 2.54444e-014 2.3059e-014
lhumerus 9.04148 -40.4343 21.9721
lradius 73.6206
lwrist 34.7248
lhand -18.2237 -32.2915
lfingers 7.12502
lthumb 8.05447 -2.46498
rfemur -72.5003 -32.3934 1.02663
rtibia 124.167
rfoot -25.5994 17.0548
rtoes -19.7893
lfemur -53.6413 51.7251 3.91128
ltibia 122.824
lfoot -21.3563 -31.5175
ltoes -22.7197
